<svg width="1512" height="1146" viewBox="0 0 1512 1146" fill="none" xmlns="http://www.w3.org/2000/svg">
<rect width="1512" height="1146" fill="#222222"/>
<g clip-path="url(#clip0_15_1244)">
<path d="M239.594 -9L-240.63 21.6875C-320.124 26.7673 -382.001 92.7239 -382.001 172.38V588C-382.001 671.395 -314.396 739 -231.001 739H1538C1621.39 739 1689 671.395 1689 588V152.611C1689 87.0409 1646.68 28.9649 1584.27 8.87374L1551.3 -1.7369C1536.35 -6.5495 1520.75 -9 1505.04 -9H1341.97C1320.76 -9 1026.75 30.7214 992.578 30.7214C972.258 30.7214 885.365 44.5905 813.136 56.8662C770.931 64.0392 727.972 52.8158 692.823 28.3775C678.167 18.1874 665.045 9.8331 658.507 7.50759C643.424 2.14262 372.947 -5.73287 239.594 -9Z" fill="url(#paint0_linear_15_1244)"/>
<path d="M272.904 47.3509L36.5035 91.1288C-35.0703 104.383 -87.001 166.814 -87.001 239.604V420.5C-87.001 503.895 -19.396 571.5 63.999 571.5H1635C1718.39 571.5 1786 503.895 1786 420.5V241C1786 184.667 1740.33 139 1684 139C1617.5 144.333 1482.3 155.4 1473.5 157C1464.7 158.6 1232.83 203 1118 225L978.229 252.818C936.087 261.206 892.304 251.337 858.323 225.038C812.15 189.303 761.925 149.059 755.499 139C748.328 127.775 701.399 100.227 663.922 79.7029C645.282 69.4952 624.533 63.8475 603.319 62.5851L309.369 45.0931C297.168 44.3671 284.923 45.1252 272.904 47.3509Z" fill="url(#paint1_linear_15_1244)"/>
<path d="M312.158 182.977L116.949 249.868C101.932 255.014 85.6779 255.314 70.4809 250.726C20.1964 235.544 -29.9083 274.881 -27.0936 327.332L-23.7481 389.675C-20.2085 455.633 36.1303 506.233 102.088 502.693L1502.9 427.521C1576.29 423.582 1632.59 360.897 1628.65 287.509C1625.65 231.524 1586.47 190.891 1530.41 190.014C1459.43 188.904 1372.99 189.14 1364.52 189.594L1170.54 200.004C1143.57 201.451 1117.5 210.106 1095.01 225.068L1005.69 284.495C999.193 288.82 992.368 292.633 985.279 295.902L872.67 347.828C802.888 380.006 719.821 354.768 681.235 288.315C658.726 249.548 640.185 216.31 637.997 208.553C635.692 200.382 618.194 183.99 597.686 167.131C563.617 139.121 517.765 131.251 474.992 142.011L312.158 182.977Z" fill="url(#paint2_linear_15_1244)"/>
<path d="M230.54 154.164L33.9095 184.695C-17.259 192.64 -55.0007 236.694 -55.0007 288.476C-55.0007 346.479 -7.97972 393.5 50.0236 393.5H1586.72C1628.02 393.5 1661.5 360.021 1661.5 318.723C1661.5 270.247 1616.08 234.601 1568.95 245.939C1535.19 254.058 1506.03 260.976 1500.5 262C1487 264.5 1226.5 223.5 1215 223.5C1205.8 223.5 1119.17 197.833 1077 185L859.43 150.425C832.721 146.181 805.447 147.061 779.067 153.02L637.499 185L532.719 207.856C486.247 217.993 437.719 212.283 394.869 191.637L355.677 172.754C316.81 154.027 273.173 147.544 230.54 154.164Z" fill="#232323"/>
</g>
<defs>
<linearGradient id="paint0_linear_15_1244" x1="653.499" y1="-9" x2="653.499" y2="739" gradientUnits="userSpaceOnUse">
<stop stop-color="#3D3D3D"/>
<stop offset="0.25" stop-color="#383838" stop-opacity="0"/>
</linearGradient>
<linearGradient id="paint1_linear_15_1244" x1="849.499" y1="44" x2="849.499" y2="571.5" gradientUnits="userSpaceOnUse">
<stop stop-color="#3D3D3D"/>
<stop offset="0.1875" stop-color="#2F2F2F" stop-opacity="0"/>
</linearGradient>
<linearGradient id="paint2_linear_15_1244" x1="790.279" y1="111.754" x2="809.221" y2="464.746" gradientUnits="userSpaceOnUse">
<stop stop-color="#3D3D3D"/>
<stop offset="0.192708" stop-color="#383838" stop-opacity="0"/>
</linearGradient>
<clipPath id="clip0_15_1244">
<rect width="1512" height="386" fill="white"/>
</clipPath>
</defs>
</svg>
