<svg xmlns="http://www.w3.org/2000/svg" width="1512" height="1146" fill="none"><path fill="#222" d="M0 0h1512v1146H0z"/><g clip-path="url(#a)"><path fill="url(#b)" d="M239.594-9-240.63 21.688c-79.494 5.08-141.371 71.036-141.371 150.692V588c0 83.395 67.605 151 151 151H1538c83.39 0 151-67.605 151-151V152.611c0-65.57-42.32-123.646-104.73-143.737l-32.97-10.61A150.93 150.93 0 0 0 1505.04-9h-163.07c-21.21 0-315.22 39.721-349.392 39.721-20.32 0-107.213 13.87-179.442 26.145-42.205 7.173-85.164-4.05-120.313-28.488-14.656-10.19-27.778-18.545-34.316-20.87C643.424 2.143 372.947-5.732 239.594-9Z"/><path fill="url(#c)" d="M272.904 47.35 36.504 91.13C-35.07 104.383-87.001 166.814-87.001 239.604V420.5c0 83.395 67.605 151 151 151H1635c83.39 0 151-67.605 151-151V241c0-56.333-45.67-102-102-102-66.5 5.333-201.7 16.4-210.5 18-8.8 1.6-240.67 46-355.5 68l-139.771 27.818c-42.142 8.388-85.925-1.481-119.906-27.78-46.173-35.735-96.398-75.979-102.824-86.038-7.171-11.225-54.1-38.773-91.577-59.297-18.64-10.208-39.389-15.856-60.603-17.118l-293.95-17.492a151.006 151.006 0 0 0-36.465 2.258Z"/><path fill="url(#d)" d="m312.158 182.977-195.209 66.891a75.781 75.781 0 0 1-46.468.858c-50.285-15.182-100.39 24.155-97.575 76.606l3.346 62.343c3.54 65.958 59.878 116.558 125.836 113.018L1502.9 427.521c73.39-3.939 129.69-66.624 125.75-140.012-3-55.985-42.18-96.618-98.24-97.495-70.98-1.11-157.42-.874-165.89-.42l-193.98 10.41a150.933 150.933 0 0 0-75.53 25.064l-89.32 59.427a150.764 150.764 0 0 1-20.411 11.407L872.67 347.828c-69.782 32.178-152.849 6.94-191.435-59.513-22.509-38.767-41.05-72.005-43.238-79.762-2.305-8.171-19.803-24.563-40.311-41.422-34.069-28.01-79.921-35.88-122.694-25.12l-162.834 40.966Z"/><path fill="#232323" d="M230.54 154.164 33.91 184.695C-17.26 192.64-55 236.694-55 288.476-55 346.479-7.98 393.5 50.023 393.5H1586.72c41.3 0 74.78-33.479 74.78-74.777 0-48.476-45.42-84.122-92.55-72.784-33.76 8.119-62.92 15.037-68.45 16.061-13.5 2.5-274-38.5-285.5-38.5-9.2 0-95.83-25.667-138-38.5l-217.57-34.575a213.015 213.015 0 0 0-80.363 2.595L637.499 185l-104.78 22.856a213 213 0 0 1-137.85-16.219l-39.192-18.883a212.996 212.996 0 0 0-125.137-18.59Z"/></g><defs><linearGradient id="b" x1="653.499" x2="653.499" y1="-9" y2="739" gradientUnits="userSpaceOnUse"><stop stop-color="#3D3D3D"/><stop offset=".25" stop-color="#383838" stop-opacity="0"/></linearGradient><linearGradient id="c" x1="849.499" x2="849.499" y1="44" y2="571.5" gradientUnits="userSpaceOnUse"><stop stop-color="#3D3D3D"/><stop offset=".188" stop-color="#2F2F2F" stop-opacity="0"/></linearGradient><linearGradient id="d" x1="790.279" x2="809.221" y1="111.754" y2="464.746" gradientUnits="userSpaceOnUse"><stop stop-color="#3D3D3D"/><stop offset=".193" stop-color="#383838" stop-opacity="0"/></linearGradient><clipPath id="a"><path fill="#fff" d="M0 0h1512v386H0z"/></clipPath></defs></svg>