<svg xmlns="http://www.w3.org/2000/svg" width="645" height="831" fill="none" xmlns:v="https://vecta.io/nano"><style><![CDATA[.B{color-interpolation-filters:sRGB}.C{flood-opacity:0}.D{fill:#74424d}.E{fill:#163521}.F{fill:#183e68}.G{fill:#0a154c}.H{fill:#522d19}]]></style><g clip-path="url(#Z)"><g filter="url(#A)" class="D"><circle cx="198.711" cy="418.263" r="118.541" transform="rotate(126.943 198.711 418.263)"/></g><g filter="url(#B)" class="E"><circle cx="219.62" cy="152.62" r="118.541" transform="rotate(126.943 219.62 152.62)"/></g><g filter="url(#C)" class="H"><circle cx="282.77" cy="664.69" r="118.541" transform="rotate(126.943 282.77 664.69)"/></g><g filter="url(#D)" class="F"><circle cx="478.577" cy="495.671" r="118.541" transform="rotate(126.943 478.577 495.671)"/></g><g filter="url(#E)" class="G"><circle cx="443.672" cy="253.489" r="118.541" transform="rotate(126.943 443.672 253.489)"/></g><g filter="url(#F)" class="D"><circle cx="-153.86" cy="778.536" r="118.541" transform="rotate(126.943 -153.86 778.536)"/></g><g filter="url(#G)" class="E"><circle cx="-132.952" cy="512.892" r="118.541" transform="rotate(126.943 -132.952 512.892)"/></g><g filter="url(#H)" class="H"><circle cx="-69.801" cy="1024.96" r="118.541" transform="rotate(126.943 -69.801 1024.96)"/></g><g filter="url(#I)" class="F"><circle cx="126.006" cy="855.945" r="118.541" transform="rotate(126.943 126.006 855.945)"/></g><g filter="url(#J)" class="G"><circle cx="91.101" cy="613.763" r="118.541" transform="rotate(126.943 91.101 613.763)"/></g><g filter="url(#K)" class="D"><circle cx="444.072" cy="930.198" r="118.541" transform="rotate(126.943 444.072 930.198)"/></g><g filter="url(#L)" class="E"><circle cx="464.981" cy="664.555" r="118.541" transform="rotate(126.943 464.981 664.555)"/></g><g filter="url(#M)" class="F"><circle cx="723.939" cy="1007.61" r="118.541" transform="rotate(126.943 723.939 1007.61)"/></g><g filter="url(#N)" class="G"><circle cx="689.034" cy="765.424" r="118.541" transform="rotate(126.943 689.034 765.424)"/></g><g filter="url(#O)" class="D"><circle cx="572.201" cy="58.577" r="118.541" transform="rotate(126.943 572.201 58.577)"/></g><g filter="url(#P)" class="E"><circle cx="593.109" cy="-207.067" r="118.541" transform="rotate(126.943 593.109 -207.067)"/></g><g filter="url(#Q)" class="H"><circle cx="656.26" cy="305.004" r="118.541" transform="rotate(126.943 656.26 305.004)"/></g><g filter="url(#R)" class="F"><circle cx="852.067" cy="135.985" r="118.541" transform="rotate(126.943 852.067 135.985)"/></g><g filter="url(#S)" class="G"><circle cx="817.162" cy="-106.197" r="118.541" transform="rotate(126.943 817.162 -106.197)"/></g><g filter="url(#T)" class="D"><circle cx="-18.759" cy="69.907" r="118.541" transform="rotate(126.943 -18.759 69.907)"/></g><g filter="url(#U)" class="E"><circle cx="2.15" cy="-195.736" r="118.541" transform="rotate(126.943 2.15 -195.736)"/></g><g filter="url(#V)" class="H"><circle cx="65.301" cy="316.335" r="118.541" transform="rotate(126.943 65.301 316.335)"/></g><g filter="url(#W)" class="F"><circle cx="261.108" cy="147.316" r="118.541" transform="rotate(126.943 261.108 147.316)"/></g><g filter="url(#X)" class="G"><circle cx="226.203" cy="-94.866" r="118.541" transform="rotate(126.943 226.203 -94.866)"/></g><g style="mix-blend-mode:luminosity" filter="url(#Y)"><path transform="rotate(90 660.689 -16.56)" fill="#fff" fill-opacity=".21" d="M660.689-16.56h869.007v674.635H660.689z"/></g></g><defs><filter id="A" x="-94.161" y="125.391" width="585.743" height="585.744" filterUnits="userSpaceOnUse" class="B"><feFlood class="C"/><feBlend in="SourceGraphic"/><feGaussianBlur stdDeviation="87.162"/></filter><filter id="B" x="-73.252" y="-140.252" width="585.743" height="585.744" filterUnits="userSpaceOnUse" class="B"><feFlood class="C"/><feBlend in="SourceGraphic"/><feGaussianBlur stdDeviation="87.162"/></filter><filter id="C" x="-10.102" y="371.818" width="585.743" height="585.744" filterUnits="userSpaceOnUse" class="B"><feFlood class="C"/><feBlend in="SourceGraphic"/><feGaussianBlur stdDeviation="87.162"/></filter><filter id="D" x="185.706" y="202.799" width="585.743" height="585.744" filterUnits="userSpaceOnUse" class="B"><feFlood class="C"/><feBlend in="SourceGraphic"/><feGaussianBlur stdDeviation="87.162"/></filter><filter id="E" x="150.801" y="-39.382" width="585.743" height="585.744" filterUnits="userSpaceOnUse" class="B"><feFlood class="C"/><feBlend in="SourceGraphic"/><feGaussianBlur stdDeviation="87.162"/></filter><filter id="F" x="-446.732" y="485.664" width="585.743" height="585.744" filterUnits="userSpaceOnUse" class="B"><feFlood class="C"/><feBlend in="SourceGraphic"/><feGaussianBlur stdDeviation="87.162"/></filter><filter id="G" x="-425.823" y="220.021" width="585.743" height="585.744" filterUnits="userSpaceOnUse" class="B"><feFlood class="C"/><feBlend in="SourceGraphic"/><feGaussianBlur stdDeviation="87.162"/></filter><filter id="H" x="-362.673" y="732.092" width="585.743" height="585.744" filterUnits="userSpaceOnUse" class="B"><feFlood class="C"/><feBlend in="SourceGraphic"/><feGaussianBlur stdDeviation="87.162"/></filter><filter id="I" x="-166.865" y="563.073" width="585.743" height="585.744" filterUnits="userSpaceOnUse" class="B"><feFlood class="C"/><feBlend in="SourceGraphic"/><feGaussianBlur stdDeviation="87.162"/></filter><filter id="J" x="-201.771" y="320.891" width="585.743" height="585.744" filterUnits="userSpaceOnUse" class="B"><feFlood class="C"/><feBlend in="SourceGraphic"/><feGaussianBlur stdDeviation="87.162"/></filter><filter id="K" x="151.201" y="637.326" width="585.743" height="585.744" filterUnits="userSpaceOnUse" class="B"><feFlood class="C"/><feBlend in="SourceGraphic"/><feGaussianBlur stdDeviation="87.162"/></filter><filter id="L" x="172.109" y="371.683" width="585.743" height="585.744" filterUnits="userSpaceOnUse" class="B"><feFlood class="C"/><feBlend in="SourceGraphic"/><feGaussianBlur stdDeviation="87.162"/></filter><filter id="M" x="431.067" y="714.735" width="585.743" height="585.744" filterUnits="userSpaceOnUse" class="B"><feFlood class="C"/><feBlend in="SourceGraphic"/><feGaussianBlur stdDeviation="87.162"/></filter><filter id="N" x="396.162" y="472.553" width="585.743" height="585.744" filterUnits="userSpaceOnUse" class="B"><feFlood class="C"/><feBlend in="SourceGraphic"/><feGaussianBlur stdDeviation="87.162"/></filter><filter id="O" x="279.329" y="-234.295" width="585.743" height="585.744" filterUnits="userSpaceOnUse" class="B"><feFlood class="C"/><feBlend in="SourceGraphic"/><feGaussianBlur stdDeviation="87.162"/></filter><filter id="P" x="300.237" y="-499.939" width="585.743" height="585.744" filterUnits="userSpaceOnUse" class="B"><feFlood class="C"/><feBlend in="SourceGraphic"/><feGaussianBlur stdDeviation="87.162"/></filter><filter id="Q" x="363.389" y="12.132" width="585.743" height="585.744" filterUnits="userSpaceOnUse" class="B"><feFlood class="C"/><feBlend in="SourceGraphic"/><feGaussianBlur stdDeviation="87.162"/></filter><filter id="R" x="559.195" y="-156.887" width="585.743" height="585.744" filterUnits="userSpaceOnUse" class="B"><feFlood class="C"/><feBlend in="SourceGraphic"/><feGaussianBlur stdDeviation="87.162"/></filter><filter id="S" x="524.29" y="-399.069" width="585.743" height="585.744" filterUnits="userSpaceOnUse" class="B"><feFlood class="C"/><feBlend in="SourceGraphic"/><feGaussianBlur stdDeviation="87.162"/></filter><filter id="T" x="-311.631" y="-222.965" width="585.743" height="585.744" filterUnits="userSpaceOnUse" class="B"><feFlood class="C"/><feBlend in="SourceGraphic"/><feGaussianBlur stdDeviation="87.162"/></filter><filter id="U" x="-290.722" y="-488.608" width="585.743" height="585.744" filterUnits="userSpaceOnUse" class="B"><feFlood class="C"/><feBlend in="SourceGraphic"/><feGaussianBlur stdDeviation="87.162"/></filter><filter id="V" x="-227.571" y="23.464" width="585.743" height="585.744" filterUnits="userSpaceOnUse" class="B"><feFlood class="C"/><feBlend in="SourceGraphic"/><feGaussianBlur stdDeviation="87.162"/></filter><filter id="W" x="-31.764" y="-145.556" width="585.743" height="585.744" filterUnits="userSpaceOnUse" class="B"><feFlood class="C"/><feBlend in="SourceGraphic"/><feGaussianBlur stdDeviation="87.162"/></filter><filter id="X" x="-66.669" y="-387.738" width="585.743" height="585.744" filterUnits="userSpaceOnUse" class="B"><feFlood class="C"/><feBlend in="SourceGraphic"/><feGaussianBlur stdDeviation="87.162"/></filter><filter id="Y" x="-17.432" y="-20.047" width="681.608" height="875.98" filterUnits="userSpaceOnUse" class="B"><feFlood class="C"/><feGaussianBlur stdDeviation="1.743"/><feComposite in2="SourceAlpha" operator="in"/><feBlend in="SourceGraphic"/></filter><clipPath id="Z"><path fill="#fff" transform="matrix(0 1 -1 0 645 0)" d="M0 0h830.655v645H0z"/></clipPath></defs></svg>