<svg xmlns="http://www.w3.org/2000/svg" width="645" height="831" fill="none"><style>.B{color-interpolation-filters:sRGB}.C{flood-opacity:0}.D{fill:#74424d}.E{fill:#163521}.F{fill:#183e68}.G{fill:#0a154c}.H{fill:#522d19}</style><g clip-path="url(#Z)"><g class="D" filter="url(#A)"><circle cx="198.711" cy="418.263" r="118.541" transform="rotate(126.943 198.711 418.263)"/></g><g class="E" filter="url(#B)"><circle cx="219.62" cy="152.62" r="118.541" transform="rotate(126.943 219.62 152.62)"/></g><g class="H" filter="url(#C)"><circle cx="282.77" cy="664.69" r="118.541" transform="rotate(126.943 282.77 664.69)"/></g><g class="F" filter="url(#D)"><circle cx="478.577" cy="495.671" r="118.541" transform="rotate(126.943 478.577 495.671)"/></g><g class="G" filter="url(#E)"><circle cx="443.672" cy="253.489" r="118.541" transform="rotate(126.943 443.672 253.489)"/></g><g class="D" filter="url(#F)"><circle cx="-153.86" cy="778.536" r="118.541" transform="rotate(126.943 -153.86 778.536)"/></g><g class="E" filter="url(#G)"><circle cx="-132.952" cy="512.892" r="118.541" transform="rotate(126.943 -132.952 512.892)"/></g><g class="H" filter="url(#H)"><circle cx="-69.801" cy="1024.96" r="118.541" transform="rotate(126.943 -69.801 1024.96)"/></g><g class="F" filter="url(#I)"><circle cx="126.006" cy="855.945" r="118.541" transform="rotate(126.943 126.006 855.945)"/></g><g class="G" filter="url(#J)"><circle cx="91.101" cy="613.763" r="118.541" transform="rotate(126.943 91.101 613.763)"/></g><g class="D" filter="url(#K)"><circle cx="444.072" cy="930.198" r="118.541" transform="rotate(126.943 444.072 930.198)"/></g><g class="E" filter="url(#L)"><circle cx="464.981" cy="664.555" r="118.541" transform="rotate(126.943 464.981 664.555)"/></g><g class="F" filter="url(#M)"><circle cx="723.939" cy="1007.61" r="118.541" transform="rotate(126.943 723.939 1007.61)"/></g><g class="G" filter="url(#N)"><circle cx="689.034" cy="765.424" r="118.541" transform="rotate(126.943 689.034 765.424)"/></g><g class="D" filter="url(#O)"><circle cx="572.201" cy="58.577" r="118.541" transform="rotate(126.943 572.201 58.577)"/></g><g class="E" filter="url(#P)"><circle cx="593.109" cy="-207.067" r="118.541" transform="rotate(126.943 593.109 -207.067)"/></g><g class="H" filter="url(#Q)"><circle cx="656.26" cy="305.004" r="118.541" transform="rotate(126.943 656.26 305.004)"/></g><g class="F" filter="url(#R)"><circle cx="852.067" cy="135.985" r="118.541" transform="rotate(126.943 852.067 135.985)"/></g><g class="G" filter="url(#S)"><circle cx="817.162" cy="-106.197" r="118.541" transform="rotate(126.943 817.162 -106.197)"/></g><g class="D" filter="url(#T)"><circle cx="-18.759" cy="69.907" r="118.541" transform="rotate(126.943 -18.759 69.907)"/></g><g class="E" filter="url(#U)"><circle cx="2.15" cy="-195.736" r="118.541" transform="rotate(126.943 2.15 -195.736)"/></g><g class="H" filter="url(#V)"><circle cx="65.301" cy="316.335" r="118.541" transform="rotate(126.943 65.301 316.335)"/></g><g class="F" filter="url(#W)"><circle cx="261.108" cy="147.316" r="118.541" transform="rotate(126.943 261.108 147.316)"/></g><g class="G" filter="url(#X)"><circle cx="226.203" cy="-94.866" r="118.541" transform="rotate(126.943 226.203 -94.866)"/></g><g filter="url(#Y)" style="mix-blend-mode:luminosity"><path fill="#fff" fill-opacity=".21" d="M660.689-16.56v869.007H-13.946V-16.56z"/></g></g><defs><filter id="N" width="585.743" height="585.744" x="396.162" y="472.553" class="B" filterUnits="userSpaceOnUse"><feFlood class="C"/><feBlend in="SourceGraphic"/><feGaussianBlur stdDeviation="87.162"/></filter><filter id="A" width="585.743" height="585.744" x="-94.161" y="125.391" class="B" filterUnits="userSpaceOnUse"><feFlood class="C"/><feBlend in="SourceGraphic"/><feGaussianBlur stdDeviation="87.162"/></filter><filter id="C" width="585.743" height="585.744" x="-10.102" y="371.818" class="B" filterUnits="userSpaceOnUse"><feFlood class="C"/><feBlend in="SourceGraphic"/><feGaussianBlur stdDeviation="87.162"/></filter><filter id="D" width="585.743" height="585.744" x="185.706" y="202.799" class="B" filterUnits="userSpaceOnUse"><feFlood class="C"/><feBlend in="SourceGraphic"/><feGaussianBlur stdDeviation="87.162"/></filter><filter id="E" width="585.743" height="585.744" x="150.801" y="-39.382" class="B" filterUnits="userSpaceOnUse"><feFlood class="C"/><feBlend in="SourceGraphic"/><feGaussianBlur stdDeviation="87.162"/></filter><filter id="F" width="585.743" height="585.744" x="-446.732" y="485.664" class="B" filterUnits="userSpaceOnUse"><feFlood class="C"/><feBlend in="SourceGraphic"/><feGaussianBlur stdDeviation="87.162"/></filter><filter id="G" width="585.743" height="585.744" x="-425.823" y="220.021" class="B" filterUnits="userSpaceOnUse"><feFlood class="C"/><feBlend in="SourceGraphic"/><feGaussianBlur stdDeviation="87.162"/></filter><filter id="H" width="585.743" height="585.744" x="-362.673" y="732.092" class="B" filterUnits="userSpaceOnUse"><feFlood class="C"/><feBlend in="SourceGraphic"/><feGaussianBlur stdDeviation="87.162"/></filter><filter id="I" width="585.743" height="585.744" x="-166.865" y="563.073" class="B" filterUnits="userSpaceOnUse"><feFlood class="C"/><feBlend in="SourceGraphic"/><feGaussianBlur stdDeviation="87.162"/></filter><filter id="J" width="585.743" height="585.744" x="-201.771" y="320.891" class="B" filterUnits="userSpaceOnUse"><feFlood class="C"/><feBlend in="SourceGraphic"/><feGaussianBlur stdDeviation="87.162"/></filter><filter id="K" width="585.743" height="585.744" x="151.201" y="637.326" class="B" filterUnits="userSpaceOnUse"><feFlood class="C"/><feBlend in="SourceGraphic"/><feGaussianBlur stdDeviation="87.162"/></filter><filter id="L" width="585.743" height="585.744" x="172.109" y="371.683" class="B" filterUnits="userSpaceOnUse"><feFlood class="C"/><feBlend in="SourceGraphic"/><feGaussianBlur stdDeviation="87.162"/></filter><filter id="M" width="585.743" height="585.744" x="431.067" y="714.735" class="B" filterUnits="userSpaceOnUse"><feFlood class="C"/><feBlend in="SourceGraphic"/><feGaussianBlur stdDeviation="87.162"/></filter><filter id="B" width="585.743" height="585.744" x="-73.252" y="-140.252" class="B" filterUnits="userSpaceOnUse"><feFlood class="C"/><feBlend in="SourceGraphic"/><feGaussianBlur stdDeviation="87.162"/></filter><filter id="O" width="585.743" height="585.744" x="279.329" y="-234.295" class="B" filterUnits="userSpaceOnUse"><feFlood class="C"/><feBlend in="SourceGraphic"/><feGaussianBlur stdDeviation="87.162"/></filter><filter id="P" width="585.743" height="585.744" x="300.237" y="-499.939" class="B" filterUnits="userSpaceOnUse"><feFlood class="C"/><feBlend in="SourceGraphic"/><feGaussianBlur stdDeviation="87.162"/></filter><filter id="Q" width="585.743" height="585.744" x="363.389" y="12.132" class="B" filterUnits="userSpaceOnUse"><feFlood class="C"/><feBlend in="SourceGraphic"/><feGaussianBlur stdDeviation="87.162"/></filter><filter id="R" width="585.743" height="585.744" x="559.195" y="-156.887" class="B" filterUnits="userSpaceOnUse"><feFlood class="C"/><feBlend in="SourceGraphic"/><feGaussianBlur stdDeviation="87.162"/></filter><filter id="S" width="585.743" height="585.744" x="524.29" y="-399.069" class="B" filterUnits="userSpaceOnUse"><feFlood class="C"/><feBlend in="SourceGraphic"/><feGaussianBlur stdDeviation="87.162"/></filter><filter id="T" width="585.743" height="585.744" x="-311.631" y="-222.965" class="B" filterUnits="userSpaceOnUse"><feFlood class="C"/><feBlend in="SourceGraphic"/><feGaussianBlur stdDeviation="87.162"/></filter><filter id="U" width="585.743" height="585.744" x="-290.722" y="-488.608" class="B" filterUnits="userSpaceOnUse"><feFlood class="C"/><feBlend in="SourceGraphic"/><feGaussianBlur stdDeviation="87.162"/></filter><filter id="V" width="585.743" height="585.744" x="-227.571" y="23.464" class="B" filterUnits="userSpaceOnUse"><feFlood class="C"/><feBlend in="SourceGraphic"/><feGaussianBlur stdDeviation="87.162"/></filter><filter id="W" width="585.743" height="585.744" x="-31.764" y="-145.556" class="B" filterUnits="userSpaceOnUse"><feFlood class="C"/><feBlend in="SourceGraphic"/><feGaussianBlur stdDeviation="87.162"/></filter><filter id="X" width="585.743" height="585.744" x="-66.669" y="-387.738" class="B" filterUnits="userSpaceOnUse"><feFlood class="C"/><feBlend in="SourceGraphic"/><feGaussianBlur stdDeviation="87.162"/></filter><filter id="Y" width="681.608" height="875.98" x="-17.432" y="-20.047" class="B" filterUnits="userSpaceOnUse"><feFlood class="C"/><feGaussianBlur stdDeviation="1.743"/><feComposite in2="SourceAlpha" operator="in"/><feBlend in="SourceGraphic"/></filter><clipPath id="Z"><path fill="#fff" d="M645 0v830.655H0V0z"/></clipPath></defs></svg>