<svg xmlns="http://www.w3.org/2000/svg" width="25" height="24" fill="none"><mask id="a" width="25" height="24" x="0" y="0" maskUnits="userSpaceOnUse" style="mask-type:alpha"><path fill="#000" d="M9.999.242A11.695 11.695 0 0 1 12.471 0a.416.416 0 0 1 .143.806A7.76 7.76 0 0 0 8.63 4.344a7.747 7.747 0 0 0-.777 5.26l.002.013a7.756 7.756 0 0 0 3.34 4.923 7.755 7.755 0 0 0 5.839 1.125l.013-.002a7.741 7.741 0 0 0 3.858-2.049 7.818 7.818 0 0 0 2.152-3.83.415.415 0 0 1 .815.027 11.64 11.64 0 0 1-1.911 8.495 11.628 11.628 0 0 1-7.255 4.805c-3.158.65-6.28-.042-8.774-1.683a11.648 11.648 0 0 1-5.014-7.4 11.638 11.638 0 0 1 1.569-8.597A11.648 11.648 0 0 1 9.591.333c.058-.015.127-.03.2-.048h.003l.205-.043Z"/></mask><g mask="url(#a)"><path fill="url(#b)" d="m-12.73-7.551-68.339 4.367c-11.312.723-20.118 10.109-20.118 21.445v59.145c0 11.868 9.621 21.488 21.489 21.488h251.74c11.868 0 21.489-9.62 21.489-21.488V15.447a21.488 21.488 0 0 0-14.904-20.454l-4.691-1.51a21.483 21.483 0 0 0-6.583-1.034h-23.207c-3.019 0-44.858 5.653-49.72 5.653-2.892 0-15.258 1.973-25.537 3.72-6.006 1.02-12.119-.576-17.121-4.054-2.086-1.45-3.953-2.639-4.883-2.97C44.738-5.965 6.248-7.086-12.73-7.55Z"/><path fill="url(#c)" d="m-7.99.468-33.64 6.23c-10.186 1.886-17.576 10.77-17.576 21.13V53.57c0 11.867 9.62 21.488 21.488 21.488h223.564c11.868 0 21.488-9.62 21.488-21.488V28.026c0-8.017-6.498-14.516-14.515-14.516-9.463.76-28.703 2.334-29.955 2.562-1.253.228-34.249 6.546-50.59 9.677l-19.89 3.959c-5.998 1.193-12.228-.211-17.064-3.954-6.57-5.085-13.718-10.812-14.633-12.244-1.02-1.597-7.698-5.517-13.032-8.438-2.652-1.453-5.605-2.256-8.624-2.436L-2.8.146a21.488 21.488 0 0 0-5.19.322Z"/><path fill="url(#d)" d="m-2.403 19.769-27.78 9.519c-2.137.732-4.45.775-6.612.122-7.156-2.16-14.286 3.437-13.886 10.901l.476 8.872c.504 9.386 8.521 16.587 17.907 16.083L167.048 54.57c10.443-.56 18.455-9.481 17.895-19.925-.428-7.967-6.003-13.75-13.981-13.874-10.101-.158-22.402-.124-23.606-.06l-27.605 1.482a21.482 21.482 0 0 0-10.749 3.567l-12.71 8.456a21.487 21.487 0 0 1-2.905 1.624L77.36 43.228c-9.93 4.58-21.751.988-27.242-8.47-3.203-5.516-5.842-10.246-6.153-11.35-.328-1.163-2.818-3.495-5.736-5.895-4.849-3.985-11.374-5.105-17.46-3.574l-23.173 5.83Z"/><path fill="#232323" d="M-14.018 15.668-42 20.013a14.946 14.946 0 0 0-12.652 14.769c0 8.254 6.691 14.946 14.945 14.946h218.683c5.877 0 10.641-4.765 10.641-10.642 0-6.898-6.464-11.971-13.171-10.357-4.803 1.155-8.954 2.14-9.74 2.285-1.921.356-38.992-5.479-40.629-5.479-1.309 0-13.638-3.652-19.638-5.479l-30.962-4.92a30.312 30.312 0 0 0-11.436.37l-20.146 4.55-14.91 3.253a30.31 30.31 0 0 1-19.618-2.308L3.79 18.314a30.31 30.31 0 0 0-17.808-2.646Z"/></g><defs><linearGradient id="b" x1="46.172" x2="46.172" y1="-7.551" y2="98.894" gradientUnits="userSpaceOnUse"><stop stop-color="#3D3D3D"/><stop offset=".25" stop-color="#383838" stop-opacity="0"/></linearGradient><linearGradient id="c" x1="74.064" x2="74.064" y1="-.009" y2="75.058" gradientUnits="userSpaceOnUse"><stop stop-color="#3D3D3D"/><stop offset=".188" stop-color="#2F2F2F" stop-opacity="0"/></linearGradient><linearGradient id="d" x1="65.637" x2="68.332" y1="9.633" y2="59.866" gradientUnits="userSpaceOnUse"><stop stop-color="#3D3D3D"/><stop offset=".193" stop-color="#383838" stop-opacity="0"/></linearGradient></defs></svg>