<svg xmlns="http://www.w3.org/2000/svg" width="47" height="47" fill="none"><circle cx="23.353" cy="23.353" r="23.353" fill="#D9D9D9"/><mask id="a" width="25" height="24" x="11" y="11" maskUnits="userSpaceOnUse" style="mask-type:alpha"><path fill="#000" d="M20.999 11.242A11.697 11.697 0 0 1 23.471 11a.416.416 0 0 1 .142.806 7.76 7.76 0 0 0-3.982 3.538 7.747 7.747 0 0 0-.777 5.26l.002.013a7.756 7.756 0 0 0 3.34 4.923 7.755 7.755 0 0 0 5.839 1.125l.013-.002a7.741 7.741 0 0 0 3.858-2.049 7.818 7.818 0 0 0 2.152-3.83.415.415 0 0 1 .815.027 11.64 11.64 0 0 1-1.911 8.495 11.628 11.628 0 0 1-7.255 4.805c-3.158.65-6.28-.042-8.774-1.683a11.648 11.648 0 0 1-5.014-7.4 11.638 11.638 0 0 1 1.57-8.597 11.647 11.647 0 0 1 7.101-5.098c.06-.015.128-.03.202-.047h.002l.205-.044Z"/></mask><g mask="url(#a)"><path fill="url(#b)" d="m-1.73 3.449-68.339 4.367c-11.312.723-20.118 10.109-20.118 21.445v59.145c0 11.868 9.621 21.488 21.489 21.488h251.74c11.868 0 21.489-9.62 21.489-21.488V26.447a21.488 21.488 0 0 0-14.904-20.454l-4.691-1.51a21.483 21.483 0 0 0-6.583-1.034h-23.207c-3.019 0-44.858 5.653-49.721 5.653-2.891 0-15.257 1.973-25.536 3.72-6.006 1.02-12.119-.576-17.121-4.054-2.086-1.45-3.953-2.639-4.883-2.97C55.738 5.035 17.247 3.914-1.73 3.45Z"/><path fill="url(#c)" d="m3.01 11.468-33.64 6.23c-10.186 1.886-17.576 10.77-17.576 21.13V64.57c0 11.867 9.62 21.488 21.488 21.488h223.564c11.868 0 21.488-9.62 21.488-21.488V39.026c0-8.017-6.498-14.516-14.515-14.516-9.463.76-28.703 2.334-29.955 2.562-1.253.228-34.249 6.546-50.59 9.677l-19.891 3.959c-5.997 1.193-12.227-.211-17.063-3.954-6.57-5.085-13.718-10.812-14.633-12.244-1.02-1.597-7.698-5.517-13.032-8.438-2.652-1.453-5.605-2.256-8.624-2.436L8.2 11.146a21.491 21.491 0 0 0-5.19.322Z"/><path fill="url(#d)" d="m8.597 30.769-27.78 9.519c-2.137.732-4.45.775-6.612.122-7.156-2.16-14.286 3.437-13.886 10.901l.476 8.872c.504 9.386 8.521 16.587 17.907 16.083L178.048 65.57c10.443-.56 18.455-9.481 17.895-19.925-.428-7.967-6.003-13.75-13.981-13.874-10.101-.158-22.402-.124-23.606-.06l-27.605 1.482a21.482 21.482 0 0 0-10.749 3.566l-12.711 8.457a21.47 21.47 0 0 1-2.904 1.624l-16.026 7.389c-9.93 4.58-21.751.988-27.242-8.47-3.203-5.516-5.842-10.246-6.153-11.35-.328-1.163-2.818-3.495-5.736-5.895-4.849-3.985-11.374-5.105-17.46-3.574l-23.173 5.83Z"/><path fill="#232323" d="M-3.018 26.668-31 31.013a14.946 14.946 0 0 0-12.652 14.769c0 8.254 6.691 14.946 14.945 14.946h218.683c5.877 0 10.641-4.765 10.641-10.642 0-6.898-6.464-11.971-13.171-10.358-4.803 1.156-8.954 2.14-9.74 2.286-1.921.356-38.992-5.479-40.629-5.479-1.309 0-13.638-3.652-19.638-5.478l-30.962-4.92a30.312 30.312 0 0 0-11.436.369l-20.146 4.55-14.91 3.253a30.31 30.31 0 0 1-19.618-2.308l-5.577-2.687a30.31 30.31 0 0 0-17.808-2.646Z"/></g><defs><linearGradient id="b" x1="57.172" x2="57.172" y1="3.449" y2="109.894" gradientUnits="userSpaceOnUse"><stop stop-color="#3D3D3D"/><stop offset=".25" stop-color="#383838" stop-opacity="0"/></linearGradient><linearGradient id="c" x1="85.064" x2="85.064" y1="10.991" y2="86.058" gradientUnits="userSpaceOnUse"><stop stop-color="#3D3D3D"/><stop offset=".188" stop-color="#2F2F2F" stop-opacity="0"/></linearGradient><linearGradient id="d" x1="76.637" x2="79.332" y1="20.633" y2="70.866" gradientUnits="userSpaceOnUse"><stop stop-color="#3D3D3D"/><stop offset=".193" stop-color="#383838" stop-opacity="0"/></linearGradient></defs></svg>