<svg xmlns="http://www.w3.org/2000/svg" width="46" height="45" fill="none"><path fill="#fff" d="M23 0C10.3 0 0 10.298 0 23c0 10.162 6.59 18.783 15.73 21.825 1.148.213 1.52-.5 1.52-1.106v-4.282c-6.398 1.392-7.73-2.714-7.73-2.714-1.046-2.658-2.555-3.365-2.555-3.365-2.087-1.428.16-1.398.16-1.398 2.309.161 3.524 2.371 3.524 2.371 2.05 3.515 5.38 2.5 6.693 1.911.205-1.485.801-2.501 1.46-3.074C13.695 32.583 8.324 30.61 8.324 21.8c0-2.513.899-4.563 2.37-6.173-.239-.581-1.026-2.921.223-6.088 0 0 1.932-.617 6.327 2.358 1.834-.51 3.801-.765 5.756-.775 1.955.01 3.923.265 5.762.775 4.39-2.975 6.319-2.358 6.319-2.358 1.251 3.168.464 5.509.226 6.088 1.476 1.61 2.367 3.662 2.367 6.173 0 8.834-5.38 10.78-10.501 11.349.824.713 1.577 2.112 1.577 4.259v6.311c0 .612.368 1.33 1.535 1.104C39.418 41.778 46 33.158 46 23 46 10.298 35.702 0 23 0Z"/></svg>