<svg xmlns="http://www.w3.org/2000/svg" width="46" height="46" fill="none"><path fill="#000" d="M11.187 3.275c1.155-.692 2.613.145 2.613 1.477 0 .607-.317 1.17-.84 1.481-5.694 3.418-9.51 9.653-9.51 16.772 0 10.789 8.758 19.545 19.545 19.545 10.787 0 19.543-8.756 19.543-19.545 0-7.114-3.808-13.347-9.5-16.765a1.732 1.732 0 0 1-.838-1.481c0-1.339 1.46-2.17 2.615-1.477 6.693 4.02 11.174 11.353 11.174 19.723C45.989 35.698 35.687 46 22.995 46 10.304 46 0 35.698 0 23.005c0-8.375 4.487-15.71 11.187-19.73ZM13.1 23.014s4.657 4.648 8.691 8.68c.338.338.78.506 1.22.506a1.72 1.72 0 0 0 1.22-.506c4.032-4.03 8.692-8.682 8.692-8.682.334-.334.5-.773.5-1.21 0-.442-.17-.883-.509-1.222a1.718 1.718 0 0 0-2.429-.009l-5.75 5.748V1.725a1.726 1.726 0 0 0-3.45 0v24.594l-5.745-5.745a1.717 1.717 0 0 0-2.424.013c-.338.338-.509.78-.511 1.222 0 .437.163.874.495 1.205Z"/></svg>