<svg width="104" height="104" viewBox="0 0 104 104" fill="none" xmlns="http://www.w3.org/2000/svg">
<path fill-rule="evenodd" clip-rule="evenodd" d="M52 103C80.1665 103 103 80.1665 103 52C103 23.8335 80.1665 1 52 1C23.8335 1 1 23.8335 1 52C1 80.1665 23.8335 103 52 103ZM27.5365 81.0249V19.0246C45.984 16.8979 72.1158 14.7958 65.4755 42.4639C64.2316 47.6468 62.573 49.098 58.5632 52.4094L69.3033 71.4864L68.1099 20.217H76.4633V81.0249H62.1432L47.8232 55.9863H35.8898V81.0249H27.5365Z" fill="white"/>
<path d="M27.5365 19.0246L27.5033 18.7369L27.2468 18.7664V19.0246H27.5365ZM27.5365 81.0249H27.2468V81.3146H27.5365V81.0249ZM65.4755 42.4639L65.1938 42.3963L65.1938 42.3963L65.4755 42.4639ZM58.5632 52.4094L58.3788 52.186L58.1919 52.3403L58.3108 52.5515L58.5632 52.4094ZM69.3033 71.4864L69.0508 71.6285L69.5929 71.4796L69.3033 71.4864ZM68.1099 20.217V19.9273H67.8134L67.8203 20.2237L68.1099 20.217ZM76.4633 20.217H76.753V19.9273H76.4633V20.217ZM76.4633 81.0249V81.3146H76.753V81.0249H76.4633ZM62.1432 81.0249L61.8918 81.1687L61.9752 81.3146H62.1432V81.0249ZM47.8232 55.9863L48.0747 55.8425L47.9912 55.6966H47.8232V55.9863ZM35.8898 55.9863V55.6966H35.6001V55.9863H35.8898ZM35.8898 81.0249V81.3146H36.1795V81.0249H35.8898ZM102.71 52C102.71 80.0065 80.0065 102.71 52 102.71V103.29C80.3265 103.29 103.29 80.3265 103.29 52H102.71ZM52 1.28969C80.0065 1.28969 102.71 23.9935 102.71 52H103.29C103.29 23.6735 80.3265 0.71031 52 0.71031V1.28969ZM1.28969 52C1.28969 23.9935 23.9935 1.28969 52 1.28969V0.71031C23.6735 0.71031 0.71031 23.6735 0.71031 52H1.28969ZM52 102.71C23.9935 102.71 1.28969 80.0065 1.28969 52H0.71031C0.71031 80.3265 23.6735 103.29 52 103.29V102.71ZM27.2468 19.0246V81.0249H27.8262V19.0246H27.2468ZM65.7572 42.5315C67.426 35.5778 67.0481 30.4454 65.2029 26.7019C63.3547 22.9522 60.0595 20.6465 56.0054 19.2964C51.9564 17.948 47.1308 17.5453 42.177 17.6093C37.2207 17.6734 32.1158 18.2051 27.5033 18.7369L27.5696 19.3124C32.1809 18.7808 37.2602 18.2523 42.1845 18.1887C47.1113 18.125 51.8625 18.5273 55.8224 19.8461C59.7772 21.1631 62.9229 23.3867 64.6832 26.958C66.4466 30.5356 66.8451 35.516 65.1938 42.3963L65.7572 42.5315ZM58.7477 52.6328C60.7466 50.982 62.1923 49.7696 63.2881 48.3126C64.3909 46.8462 65.1295 45.1469 65.7572 42.5315L65.1938 42.3963C64.5776 44.9638 63.8649 46.5816 62.825 47.9644C61.7781 49.3565 60.3896 50.5254 58.3788 52.186L58.7477 52.6328ZM69.5557 71.3443L58.8157 52.2673L58.3108 52.5515L69.0508 71.6285L69.5557 71.3443ZM67.8203 20.2237L69.0136 71.4931L69.5929 71.4796L68.3995 20.2102L67.8203 20.2237ZM76.4633 19.9273H68.1099V20.5066H76.4633V19.9273ZM76.753 81.0249V20.217H76.1736V81.0249H76.753ZM62.1432 81.3146H76.4633V80.7352H62.1432V81.3146ZM47.5717 56.1301L61.8918 81.1687L62.3947 80.8811L48.0747 55.8425L47.5717 56.1301ZM35.8898 56.276H47.8232V55.6966H35.8898V56.276ZM36.1795 81.0249V55.9863H35.6001V81.0249H36.1795ZM27.5365 81.3146H35.8898V80.7352H27.5365V81.3146Z" fill="#2F2F2F"/>
</svg>
