<svg xmlns="http://www.w3.org/2000/svg" width="37" height="37" fill="none"><g filter="url(#a)"><circle cx="18.5" cy="18.5" r="18.5" fill="#121212"/></g><circle cx="18.5" cy="18.5" r="18" stroke="#353535"/><mask id="b" width="24" height="24" x="7" y="7" maskUnits="userSpaceOnUse" style="mask-type:alpha"><path fill="#000" d="M18.672 24.637a5.972 5.972 0 0 1-5.966-5.965 5.973 5.973 0 0 1 5.966-5.966 5.972 5.972 0 0 1 5.965 5.966 5.972 5.972 0 0 1-5.965 5.965ZM17.025 11.568a.259.259 0 0 1-.24-.358l1.647-4.048a.26.26 0 0 1 .48 0l1.647 4.048a.26.26 0 0 1-.296.352 7.475 7.475 0 0 0-3.183 0 .244.244 0 0 1-.055.006ZM18.672 30.344a.259.259 0 0 1-.24-.162l-1.647-4.049a.26.26 0 0 1 .296-.35 7.468 7.468 0 0 0 3.182 0 .259.259 0 0 1 .296.35l-1.647 4.05a.26.26 0 0 1-.24.16ZM11.308 20.578a.263.263 0 0 1-.098-.019l-4.048-1.647a.26.26 0 0 1 0-.48l4.049-1.647a.26.26 0 0 1 .35.296 7.479 7.479 0 0 0 0 3.182.26.26 0 0 1-.253.315ZM26.036 20.578a.259.259 0 0 1-.254-.315 7.491 7.491 0 0 0 0-3.183.26.26 0 0 1 .351-.295l4.05 1.647a.259.259 0 0 1 0 .48l-4.05 1.647a.262.262 0 0 1-.097.02ZM12.3 14.889l-.021-.001a.26.26 0 0 1-.217-.158l-1.699-4.027a.26.26 0 0 1 .34-.34l4.027 1.699a.259.259 0 0 1 .04.457 7.48 7.48 0 0 0-2.25 2.25.26.26 0 0 1-.22.12ZM26.742 27.001a.259.259 0 0 1-.101-.02l-4.027-1.699a.26.26 0 0 1-.04-.457 7.49 7.49 0 0 0 2.25-2.25.26.26 0 0 1 .457.04l1.7 4.025a.26.26 0 0 1-.24.361ZM25.043 14.889a.26.26 0 0 1-.218-.12 7.478 7.478 0 0 0-2.25-2.25.259.259 0 0 1 .038-.457l4.027-1.699a.26.26 0 0 1 .34.34l-1.698 4.027a.26.26 0 0 1-.24.159ZM10.602 27.001a.26.26 0 0 1-.239-.36l1.699-4.027a.259.259 0 0 1 .216-.158.253.253 0 0 1 .24.119 7.488 7.488 0 0 0 2.25 2.25.26.26 0 0 1-.038.457l-4.027 1.699a.263.263 0 0 1-.101.02Z"/></mask><g mask="url(#b)"><g filter="url(#c)"><circle cx="17.381" cy="30.502" r="12.553" fill="#74424D" transform="rotate(36.943 17.38 30.502)"/></g><g filter="url(#d)"><circle cx="-10.751" cy="28.288" r="12.553" fill="#163521" transform="rotate(36.943 -10.751 28.288)"/></g><g filter="url(#e)"><circle cx="43.477" cy="21.6" r="12.553" fill="#522D19" transform="rotate(36.943 43.477 21.6)"/></g><g filter="url(#f)"><circle cx="25.578" cy=".864" r="12.553" fill="#183E68" transform="rotate(36.943 25.578 .864)"/></g><g filter="url(#g)"><circle cx="-.069" cy="4.561" r="12.553" fill="#0A154C" transform="rotate(36.943 -.069 4.56)"/></g><circle cx="27.402" cy="65.625" r="12.553" fill="#163521" transform="rotate(36.943 27.402 65.625)"/><circle cx="63.731" cy="38.202" r="12.553" fill="#183E68" transform="rotate(36.943 63.731 38.202)"/><g filter="url(#h)"><circle cx="38.084" cy="41.898" r="12.553" fill="#0A154C" transform="rotate(36.943 38.084 41.898)"/></g><g filter="url(#i)"><circle cx="43.463" cy="2.304" r="12.553" fill="#163521" transform="rotate(36.943 43.463 2.304)"/></g><g filter="url(#j)"><circle cx="54.145" cy="-21.423" r="12.553" fill="#0A154C" transform="rotate(36.943 54.145 -21.423)"/></g><g filter="url(#k)"><circle cx="-20.71" cy="-9.05" r="12.553" fill="#74424D" transform="rotate(36.943 -20.71 -9.05)"/></g><g filter="url(#l)"><circle cx="5.387" cy="-17.952" r="12.553" fill="#522D19" transform="rotate(36.943 5.387 -17.952)"/></g><g filter="url(#m)"><circle cx="-19.51" cy="53.532" r="12.553" fill="#74424D" transform="rotate(36.943 -19.51 53.532)"/></g><g filter="url(#n)"><circle cx="6.587" cy="44.63" r="12.553" fill="#522D19" transform="rotate(36.943 6.587 44.63)"/></g><g filter="url(#o)"><circle cx="-11.313" cy="23.894" r="12.553" fill="#183E68" transform="rotate(36.943 -11.313 23.894)"/></g><g filter="url(#p)"><path fill="#fff" fill-opacity=".2" d="M-28.667-18.421h92.028v71.444h-92.028z"/></g></g><defs><filter id="i" width="62.03" height="62.03" x="12.448" y="-28.711" color-interpolation-filters="sRGB" filterUnits="userSpaceOnUse"><feFlood flood-opacity="0" result="BackgroundImageFix"/><feBlend in="SourceGraphic" in2="BackgroundImageFix" result="shape"/><feGaussianBlur result="effect1_foregroundBlur_22_294" stdDeviation="9.23"/></filter><filter id="a" width="37" height="41" x="0" y="0" color-interpolation-filters="sRGB" filterUnits="userSpaceOnUse"><feFlood flood-opacity="0" result="BackgroundImageFix"/><feBlend in="SourceGraphic" in2="BackgroundImageFix" result="shape"/><feColorMatrix in="SourceAlpha" result="hardAlpha" values="0 0 0 0 0 0 0 0 0 0 0 0 0 0 0 0 0 0 127 0"/><feOffset dy="4"/><feGaussianBlur stdDeviation="2"/><feComposite in2="hardAlpha" k2="-1" k3="1" operator="arithmetic"/><feColorMatrix values="0 0 0 0 0.1375 0 0 0 0 0.1375 0 0 0 0 0.1375 0 0 0 0.25 0"/><feBlend in2="shape" result="effect1_innerShadow_22_294"/></filter><filter id="d" width="62.03" height="62.03" x="-41.766" y="-2.727" color-interpolation-filters="sRGB" filterUnits="userSpaceOnUse"><feFlood flood-opacity="0" result="BackgroundImageFix"/><feBlend in="SourceGraphic" in2="BackgroundImageFix" result="shape"/><feGaussianBlur result="effect1_foregroundBlur_22_294" stdDeviation="9.23"/></filter><filter id="e" width="62.03" height="62.03" x="12.462" y="-9.415" color-interpolation-filters="sRGB" filterUnits="userSpaceOnUse"><feFlood flood-opacity="0" result="BackgroundImageFix"/><feBlend in="SourceGraphic" in2="BackgroundImageFix" result="shape"/><feGaussianBlur result="effect1_foregroundBlur_22_294" stdDeviation="9.23"/></filter><filter id="f" width="62.03" height="62.03" x="-5.437" y="-30.151" color-interpolation-filters="sRGB" filterUnits="userSpaceOnUse"><feFlood flood-opacity="0" result="BackgroundImageFix"/><feBlend in="SourceGraphic" in2="BackgroundImageFix" result="shape"/><feGaussianBlur result="effect1_foregroundBlur_22_294" stdDeviation="9.23"/></filter><filter id="g" width="62.03" height="62.03" x="-31.084" y="-26.454" color-interpolation-filters="sRGB" filterUnits="userSpaceOnUse"><feFlood flood-opacity="0" result="BackgroundImageFix"/><feBlend in="SourceGraphic" in2="BackgroundImageFix" result="shape"/><feGaussianBlur result="effect1_foregroundBlur_22_294" stdDeviation="9.23"/></filter><filter id="h" width="62.03" height="62.03" x="7.069" y="10.883" color-interpolation-filters="sRGB" filterUnits="userSpaceOnUse"><feFlood flood-opacity="0" result="BackgroundImageFix"/><feBlend in="SourceGraphic" in2="BackgroundImageFix" result="shape"/><feGaussianBlur result="effect1_foregroundBlur_22_294" stdDeviation="9.23"/></filter><filter id="c" width="62.03" height="62.03" x="-13.634" y="-.513" color-interpolation-filters="sRGB" filterUnits="userSpaceOnUse"><feFlood flood-opacity="0" result="BackgroundImageFix"/><feBlend in="SourceGraphic" in2="BackgroundImageFix" result="shape"/><feGaussianBlur result="effect1_foregroundBlur_22_294" stdDeviation="9.23"/></filter><filter id="j" width="62.03" height="62.03" x="23.13" y="-52.438" color-interpolation-filters="sRGB" filterUnits="userSpaceOnUse"><feFlood flood-opacity="0" result="BackgroundImageFix"/><feBlend in="SourceGraphic" in2="BackgroundImageFix" result="shape"/><feGaussianBlur result="effect1_foregroundBlur_22_294" stdDeviation="9.23"/></filter><filter id="k" width="62.03" height="62.03" x="-51.725" y="-40.065" color-interpolation-filters="sRGB" filterUnits="userSpaceOnUse"><feFlood flood-opacity="0" result="BackgroundImageFix"/><feBlend in="SourceGraphic" in2="BackgroundImageFix" result="shape"/><feGaussianBlur result="effect1_foregroundBlur_22_294" stdDeviation="9.23"/></filter><filter id="l" width="62.03" height="62.03" x="-25.628" y="-48.967" color-interpolation-filters="sRGB" filterUnits="userSpaceOnUse"><feFlood flood-opacity="0" result="BackgroundImageFix"/><feBlend in="SourceGraphic" in2="BackgroundImageFix" result="shape"/><feGaussianBlur result="effect1_foregroundBlur_22_294" stdDeviation="9.23"/></filter><filter id="m" width="62.03" height="62.03" x="-50.525" y="22.517" color-interpolation-filters="sRGB" filterUnits="userSpaceOnUse"><feFlood flood-opacity="0" result="BackgroundImageFix"/><feBlend in="SourceGraphic" in2="BackgroundImageFix" result="shape"/><feGaussianBlur result="effect1_foregroundBlur_22_294" stdDeviation="9.23"/></filter><filter id="n" width="62.03" height="62.03" x="-24.428" y="13.615" color-interpolation-filters="sRGB" filterUnits="userSpaceOnUse"><feFlood flood-opacity="0" result="BackgroundImageFix"/><feBlend in="SourceGraphic" in2="BackgroundImageFix" result="shape"/><feGaussianBlur result="effect1_foregroundBlur_22_294" stdDeviation="9.23"/></filter><filter id="o" width="62.03" height="62.03" x="-42.328" y="-7.121" color-interpolation-filters="sRGB" filterUnits="userSpaceOnUse"><feFlood flood-opacity="0" result="BackgroundImageFix"/><feBlend in="SourceGraphic" in2="BackgroundImageFix" result="shape"/><feGaussianBlur result="effect1_foregroundBlur_22_294" stdDeviation="9.23"/></filter><filter id="p" width="92.766" height="72.182" x="-29.036" y="-18.791" color-interpolation-filters="sRGB" filterUnits="userSpaceOnUse"><feFlood flood-opacity="0" result="BackgroundImageFix"/><feGaussianBlur in="BackgroundImageFix" stdDeviation=".185"/><feComposite in2="SourceAlpha" operator="in" result="effect1_backgroundBlur_22_294"/><feBlend in="SourceGraphic" in2="effect1_backgroundBlur_22_294" result="shape"/></filter></defs></svg>