<svg xmlns="http://www.w3.org/2000/svg" width="47" height="47" fill="none"><circle cx="23.353" cy="23.353" r="23.353" fill="#D9D9D9"/><mask id="a" width="24" height="24" x="12" y="12" maskUnits="userSpaceOnUse" style="mask-type:alpha"><path fill="#000" d="M23.672 29.637a5.972 5.972 0 0 1-5.966-5.965 5.973 5.973 0 0 1 5.966-5.966 5.972 5.972 0 0 1 5.965 5.966 5.972 5.972 0 0 1-5.965 5.965ZM22.025 16.568a.259.259 0 0 1-.24-.358l1.647-4.048a.26.26 0 0 1 .48 0l1.647 4.048a.26.26 0 0 1-.296.352 7.475 7.475 0 0 0-3.183 0 .244.244 0 0 1-.055.006ZM23.672 35.344a.259.259 0 0 1-.24-.162l-1.647-4.049a.26.26 0 0 1 .296-.35 7.468 7.468 0 0 0 3.182 0 .259.259 0 0 1 .296.35l-1.647 4.05a.26.26 0 0 1-.24.16ZM16.308 25.578a.263.263 0 0 1-.098-.019l-4.048-1.647a.26.26 0 0 1 0-.48l4.049-1.647a.26.26 0 0 1 .35.296 7.479 7.479 0 0 0 0 3.182.26.26 0 0 1-.253.315ZM31.036 25.578a.259.259 0 0 1-.254-.315 7.491 7.491 0 0 0 0-3.183.26.26 0 0 1 .351-.295l4.05 1.647a.259.259 0 0 1 0 .48l-4.05 1.647a.262.262 0 0 1-.097.02ZM17.3 19.889l-.021-.001a.26.26 0 0 1-.217-.158l-1.699-4.027a.26.26 0 0 1 .34-.34l4.027 1.699a.259.259 0 0 1 .04.457 7.48 7.48 0 0 0-2.25 2.25.26.26 0 0 1-.22.12ZM31.742 32.001a.259.259 0 0 1-.101-.02l-4.027-1.699a.26.26 0 0 1-.04-.457 7.49 7.49 0 0 0 2.25-2.25.26.26 0 0 1 .457.04l1.7 4.025a.26.26 0 0 1-.24.361ZM30.043 19.889a.26.26 0 0 1-.218-.12 7.478 7.478 0 0 0-2.25-2.25.259.259 0 0 1 .038-.457l4.027-1.699a.26.26 0 0 1 .34.34l-1.698 4.027a.26.26 0 0 1-.24.159ZM15.602 32.001a.26.26 0 0 1-.239-.36l1.699-4.027a.259.259 0 0 1 .216-.158.253.253 0 0 1 .24.119 7.488 7.488 0 0 0 2.25 2.25.26.26 0 0 1-.038.457l-4.027 1.699a.263.263 0 0 1-.101.02Z"/></mask><g mask="url(#a)"><g filter="url(#b)"><circle cx="22.381" cy="35.502" r="12.553" fill="#74424D" transform="rotate(36.943 22.38 35.502)"/></g><g filter="url(#c)"><circle cx="-5.751" cy="33.288" r="12.553" fill="#163521" transform="rotate(36.943 -5.751 33.288)"/></g><g filter="url(#d)"><circle cx="48.477" cy="26.6" r="12.553" fill="#522D19" transform="rotate(36.943 48.477 26.6)"/></g><g filter="url(#e)"><circle cx="30.578" cy="5.864" r="12.553" fill="#183E68" transform="rotate(36.943 30.578 5.864)"/></g><g filter="url(#f)"><circle cx="4.931" cy="9.561" r="12.553" fill="#0A154C" transform="rotate(36.943 4.931 9.56)"/></g><circle cx="32.402" cy="70.625" r="12.553" fill="#163521" transform="rotate(36.943 32.402 70.625)"/><circle cx="68.731" cy="43.202" r="12.553" fill="#183E68" transform="rotate(36.943 68.731 43.202)"/><g filter="url(#g)"><circle cx="43.084" cy="46.898" r="12.553" fill="#0A154C" transform="rotate(36.943 43.084 46.898)"/></g><g filter="url(#h)"><circle cx="48.463" cy="7.304" r="12.553" fill="#163521" transform="rotate(36.943 48.463 7.304)"/></g><g filter="url(#i)"><circle cx="59.145" cy="-16.423" r="12.553" fill="#0A154C" transform="rotate(36.943 59.145 -16.423)"/></g><g filter="url(#j)"><circle cx="-15.71" cy="-4.05" r="12.553" fill="#74424D" transform="rotate(36.943 -15.71 -4.05)"/></g><g filter="url(#k)"><circle cx="10.387" cy="-12.952" r="12.553" fill="#522D19" transform="rotate(36.943 10.387 -12.952)"/></g><g filter="url(#l)"><circle cx="-14.51" cy="58.532" r="12.553" fill="#74424D" transform="rotate(36.943 -14.51 58.532)"/></g><g filter="url(#m)"><circle cx="11.587" cy="49.63" r="12.553" fill="#522D19" transform="rotate(36.943 11.587 49.63)"/></g><g filter="url(#n)"><circle cx="-6.313" cy="28.894" r="12.553" fill="#183E68" transform="rotate(36.943 -6.313 28.894)"/></g><g filter="url(#o)"><path fill="#fff" fill-opacity=".2" d="M-23.667-13.421h92.028v71.444h-92.028z"/></g></g><defs><filter id="i" width="62.03" height="62.03" x="28.13" y="-47.438" color-interpolation-filters="sRGB" filterUnits="userSpaceOnUse"><feFlood flood-opacity="0" result="BackgroundImageFix"/><feBlend in="SourceGraphic" in2="BackgroundImageFix" result="shape"/><feGaussianBlur result="effect1_foregroundBlur_22_296" stdDeviation="9.23"/></filter><filter id="b" width="62.03" height="62.03" x="-8.634" y="4.487" color-interpolation-filters="sRGB" filterUnits="userSpaceOnUse"><feFlood flood-opacity="0" result="BackgroundImageFix"/><feBlend in="SourceGraphic" in2="BackgroundImageFix" result="shape"/><feGaussianBlur result="effect1_foregroundBlur_22_296" stdDeviation="9.23"/></filter><filter id="d" width="62.03" height="62.03" x="17.462" y="-4.415" color-interpolation-filters="sRGB" filterUnits="userSpaceOnUse"><feFlood flood-opacity="0" result="BackgroundImageFix"/><feBlend in="SourceGraphic" in2="BackgroundImageFix" result="shape"/><feGaussianBlur result="effect1_foregroundBlur_22_296" stdDeviation="9.23"/></filter><filter id="e" width="62.03" height="62.03" x="-.437" y="-25.151" color-interpolation-filters="sRGB" filterUnits="userSpaceOnUse"><feFlood flood-opacity="0" result="BackgroundImageFix"/><feBlend in="SourceGraphic" in2="BackgroundImageFix" result="shape"/><feGaussianBlur result="effect1_foregroundBlur_22_296" stdDeviation="9.23"/></filter><filter id="f" width="62.03" height="62.03" x="-26.084" y="-21.454" color-interpolation-filters="sRGB" filterUnits="userSpaceOnUse"><feFlood flood-opacity="0" result="BackgroundImageFix"/><feBlend in="SourceGraphic" in2="BackgroundImageFix" result="shape"/><feGaussianBlur result="effect1_foregroundBlur_22_296" stdDeviation="9.23"/></filter><filter id="g" width="62.03" height="62.03" x="12.069" y="15.883" color-interpolation-filters="sRGB" filterUnits="userSpaceOnUse"><feFlood flood-opacity="0" result="BackgroundImageFix"/><feBlend in="SourceGraphic" in2="BackgroundImageFix" result="shape"/><feGaussianBlur result="effect1_foregroundBlur_22_296" stdDeviation="9.23"/></filter><filter id="h" width="62.03" height="62.03" x="17.448" y="-23.711" color-interpolation-filters="sRGB" filterUnits="userSpaceOnUse"><feFlood flood-opacity="0" result="BackgroundImageFix"/><feBlend in="SourceGraphic" in2="BackgroundImageFix" result="shape"/><feGaussianBlur result="effect1_foregroundBlur_22_296" stdDeviation="9.23"/></filter><filter id="c" width="62.03" height="62.03" x="-36.766" y="2.273" color-interpolation-filters="sRGB" filterUnits="userSpaceOnUse"><feFlood flood-opacity="0" result="BackgroundImageFix"/><feBlend in="SourceGraphic" in2="BackgroundImageFix" result="shape"/><feGaussianBlur result="effect1_foregroundBlur_22_296" stdDeviation="9.23"/></filter><filter id="j" width="62.03" height="62.03" x="-46.725" y="-35.065" color-interpolation-filters="sRGB" filterUnits="userSpaceOnUse"><feFlood flood-opacity="0" result="BackgroundImageFix"/><feBlend in="SourceGraphic" in2="BackgroundImageFix" result="shape"/><feGaussianBlur result="effect1_foregroundBlur_22_296" stdDeviation="9.23"/></filter><filter id="k" width="62.03" height="62.03" x="-20.628" y="-43.967" color-interpolation-filters="sRGB" filterUnits="userSpaceOnUse"><feFlood flood-opacity="0" result="BackgroundImageFix"/><feBlend in="SourceGraphic" in2="BackgroundImageFix" result="shape"/><feGaussianBlur result="effect1_foregroundBlur_22_296" stdDeviation="9.23"/></filter><filter id="l" width="62.03" height="62.03" x="-45.525" y="27.517" color-interpolation-filters="sRGB" filterUnits="userSpaceOnUse"><feFlood flood-opacity="0" result="BackgroundImageFix"/><feBlend in="SourceGraphic" in2="BackgroundImageFix" result="shape"/><feGaussianBlur result="effect1_foregroundBlur_22_296" stdDeviation="9.23"/></filter><filter id="m" width="62.03" height="62.03" x="-19.428" y="18.615" color-interpolation-filters="sRGB" filterUnits="userSpaceOnUse"><feFlood flood-opacity="0" result="BackgroundImageFix"/><feBlend in="SourceGraphic" in2="BackgroundImageFix" result="shape"/><feGaussianBlur result="effect1_foregroundBlur_22_296" stdDeviation="9.23"/></filter><filter id="n" width="62.03" height="62.03" x="-37.328" y="-2.121" color-interpolation-filters="sRGB" filterUnits="userSpaceOnUse"><feFlood flood-opacity="0" result="BackgroundImageFix"/><feBlend in="SourceGraphic" in2="BackgroundImageFix" result="shape"/><feGaussianBlur result="effect1_foregroundBlur_22_296" stdDeviation="9.23"/></filter><filter id="o" width="92.766" height="72.182" x="-24.036" y="-13.79" color-interpolation-filters="sRGB" filterUnits="userSpaceOnUse"><feFlood flood-opacity="0" result="BackgroundImageFix"/><feGaussianBlur in="BackgroundImageFix" stdDeviation=".185"/><feComposite in2="SourceAlpha" operator="in" result="effect1_backgroundBlur_22_296"/><feBlend in="SourceGraphic" in2="effect1_backgroundBlur_22_296" result="shape"/></filter></defs></svg>