<svg width="47" height="47" viewBox="0 0 47 47" fill="none" xmlns="http://www.w3.org/2000/svg">
<circle cx="23.353" cy="23.353" r="23.353" fill="#D9D9D9"/>
<mask id="mask0_22_296" style="mask-type:alpha" maskUnits="userSpaceOnUse" x="12" y="12" width="24" height="24">
<path d="M23.6719 29.6375C20.3825 29.6375 17.7062 26.9615 17.7062 23.6719C17.7062 20.3825 20.3825 17.7062 23.6719 17.7062C26.9615 17.7062 29.6375 20.3825 29.6375 23.6719C29.6375 26.9615 26.9615 29.6375 23.6719 29.6375Z" fill="black"/>
<path d="M22.0254 16.5676C21.9497 16.5676 21.8768 16.5347 21.827 16.4753C21.765 16.4016 21.7489 16.2997 21.7852 16.2104L23.4317 12.1616C23.4714 12.0641 23.5663 12 23.6719 12C23.7775 12 23.8724 12.0641 23.9121 12.1616L25.5589 16.2104C25.5952 16.2997 25.5788 16.4016 25.5168 16.4753C25.4551 16.5489 25.3571 16.5826 25.2632 16.5616C24.214 16.3331 23.129 16.3331 22.0804 16.5616C22.0622 16.5658 22.0438 16.5676 22.0254 16.5676Z" fill="black"/>
<path d="M23.6719 35.3438C23.5663 35.3438 23.4714 35.28 23.4317 35.1822L21.7852 31.1334C21.7489 31.0441 21.765 30.9422 21.827 30.8685C21.889 30.7949 21.9865 30.7617 22.0806 30.7822C23.1293 31.0109 24.2143 31.0109 25.2634 30.7822C25.3576 30.7614 25.4554 30.7951 25.5171 30.8685C25.5791 30.9419 25.5954 31.0441 25.5591 31.1334L23.9123 35.1822C23.8724 35.28 23.7775 35.3438 23.6719 35.3438Z" fill="black"/>
<path d="M16.3082 25.5781C16.2753 25.5781 16.2421 25.5718 16.2104 25.5591L12.1616 23.9123C12.0641 23.8724 12 23.7775 12 23.6719C12 23.5663 12.0641 23.4714 12.1619 23.4317L16.2107 21.7852C16.2997 21.7489 16.4019 21.765 16.4755 21.827C16.5492 21.889 16.5824 21.9867 16.5619 22.0806C16.4475 22.6048 16.3894 23.1404 16.3894 23.6719C16.3894 24.2034 16.4475 24.7387 16.5619 25.2634C16.5824 25.3573 16.5492 25.4551 16.4755 25.5171C16.4278 25.5573 16.3684 25.5781 16.3082 25.5781Z" fill="black"/>
<path d="M31.0356 25.5781C30.9756 25.5781 30.916 25.5573 30.8685 25.5171C30.7949 25.4554 30.7617 25.3576 30.7821 25.2634C30.8963 24.739 30.9544 24.2034 30.9544 23.6719C30.9544 23.1404 30.8963 22.6048 30.7821 22.0806C30.7617 21.9867 30.7949 21.889 30.8685 21.827C30.9419 21.765 31.0439 21.7489 31.1333 21.7852L35.1822 23.4317C35.28 23.4714 35.3438 23.5663 35.3438 23.6719C35.3438 23.7775 35.28 23.8724 35.1822 23.9121L31.1333 25.5589C31.1017 25.5716 31.0685 25.5781 31.0356 25.5781Z" fill="black"/>
<path d="M17.3009 19.8889C17.2936 19.8889 17.2861 19.8887 17.2788 19.8879C17.1828 19.8796 17.0993 19.8189 17.062 19.7304L15.3633 15.7031C15.3223 15.6058 15.3444 15.4935 15.4188 15.4188C15.4935 15.3441 15.6061 15.3226 15.7031 15.3633L19.7304 17.062C19.8191 17.0993 19.8798 17.1828 19.8879 17.2786C19.8962 17.3745 19.8505 17.4671 19.7696 17.519C19.3175 17.8092 18.8981 18.1467 18.5223 18.5223C18.1467 18.8981 17.809 19.3175 17.519 19.7696C17.471 19.8443 17.3885 19.8889 17.3009 19.8889Z" fill="black"/>
<path d="M31.7416 32.001C31.7076 32.001 31.6734 31.9945 31.6407 31.9807L27.6136 30.2821C27.5249 30.2445 27.4642 30.1609 27.4562 30.0652C27.4479 29.9693 27.4935 29.8767 27.5744 29.8245C28.0271 29.5338 28.4467 29.1961 28.8215 28.8213C29.1963 28.4467 29.534 28.0268 29.8248 27.5742C29.8769 27.4933 29.9682 27.4474 30.0655 27.4559C30.1612 27.464 30.2447 27.5249 30.2823 27.6134L31.981 31.6404C32.0217 31.7377 31.9999 31.8503 31.9252 31.9247C31.8754 31.9748 31.809 32.001 31.7416 32.001Z" fill="black"/>
<path d="M30.0429 19.8886C29.955 19.8886 29.8728 19.8443 29.8245 19.7696C29.5338 19.3167 29.1961 18.8973 28.8213 18.5223C28.446 18.1469 28.0263 17.8092 27.5742 17.519C27.493 17.4671 27.4476 17.3745 27.4559 17.2785C27.464 17.1826 27.5249 17.0993 27.6134 17.062L31.6404 15.3633C31.7372 15.3223 31.85 15.3441 31.9247 15.4188C31.9994 15.4935 32.0212 15.6058 31.9805 15.7031L30.2818 19.7304C30.2442 19.8191 30.1607 19.8798 30.065 19.8879C30.0577 19.8884 30.0505 19.8886 30.0429 19.8886Z" fill="black"/>
<path d="M15.602 32.001C15.5345 32.001 15.4681 31.9745 15.4186 31.925C15.3439 31.8503 15.3218 31.738 15.3631 31.6407L17.0617 27.6136C17.0991 27.5249 17.1826 27.4642 17.2783 27.4562C17.3743 27.445 17.4669 27.4935 17.5187 27.5745C17.809 28.0263 18.1467 28.446 18.522 28.8215C18.8971 29.1966 19.3165 29.534 19.7693 29.8248C19.8503 29.8769 19.8959 29.9695 19.8876 30.0655C19.8793 30.1612 19.8186 30.2447 19.7302 30.2823L15.7029 31.981C15.6702 31.9945 15.6362 32.001 15.602 32.001Z" fill="black"/>
</mask>
<g mask="url(#mask0_22_296)">
<g filter="url(#filter0_f_22_296)">
<circle cx="22.3806" cy="35.5022" r="12.5534" transform="rotate(36.9429 22.3806 35.5022)" fill="#74424D"/>
</g>
<g filter="url(#filter1_f_22_296)">
<circle cx="-5.75096" cy="33.2879" r="12.5534" transform="rotate(36.9429 -5.75096 33.2879)" fill="#163521"/>
</g>
<g filter="url(#filter2_f_22_296)">
<circle cx="48.4773" cy="26.6003" r="12.5534" transform="rotate(36.9429 48.4773 26.6003)" fill="#522D19"/>
</g>
<g filter="url(#filter3_f_22_296)">
<circle cx="30.5781" cy="5.86434" r="12.5534" transform="rotate(36.9429 30.5781 5.86434)" fill="#183E68"/>
</g>
<g filter="url(#filter4_f_22_296)">
<circle cx="4.93117" cy="9.56081" r="12.5534" transform="rotate(36.9429 4.93117 9.56081)" fill="#0A154C"/>
</g>
<circle cx="32.4019" cy="70.6251" r="12.5534" transform="rotate(36.9429 32.4019 70.6251)" fill="#163521"/>
<circle cx="68.731" cy="43.2015" r="12.5534" transform="rotate(36.9429 68.731 43.2015)" fill="#183E68"/>
<g filter="url(#filter7_f_22_296)">
<circle cx="43.084" cy="46.898" r="12.5534" transform="rotate(36.9429 43.084 46.898)" fill="#0A154C"/>
</g>
<g filter="url(#filter8_f_22_296)">
<circle cx="48.4628" cy="7.30422" r="12.5534" transform="rotate(36.9429 48.4628 7.30422)" fill="#163521"/>
</g>
<g filter="url(#filter9_f_22_296)">
<circle cx="59.145" cy="-16.423" r="12.5534" transform="rotate(36.9429 59.145 -16.423)" fill="#0A154C"/>
</g>
<g filter="url(#filter10_f_22_296)">
<circle cx="-15.7101" cy="-4.05033" r="12.5534" transform="rotate(36.9429 -15.7101 -4.05033)" fill="#74424D"/>
</g>
<g filter="url(#filter11_f_22_296)">
<circle cx="10.3866" cy="-12.9522" r="12.5534" transform="rotate(36.9429 10.3866 -12.9522)" fill="#522D19"/>
</g>
<g filter="url(#filter12_f_22_296)">
<circle cx="-14.5101" cy="58.5321" r="12.5534" transform="rotate(36.9429 -14.5101 58.5321)" fill="#74424D"/>
</g>
<g filter="url(#filter13_f_22_296)">
<circle cx="11.5866" cy="49.6302" r="12.5534" transform="rotate(36.9429 11.5866 49.6302)" fill="#522D19"/>
</g>
<g filter="url(#filter14_f_22_296)">
<circle cx="-6.3126" cy="28.8943" r="12.5534" transform="rotate(36.9429 -6.3126 28.8943)" fill="#183E68"/>
</g>
<g filter="url(#filter15_b_22_296)">
<rect x="-23.6671" y="-13.4213" width="92.0276" height="71.4437" fill="white" fill-opacity="0.2"/>
</g>
</g>
<defs>
<filter id="filter0_f_22_296" x="-8.63442" y="4.4871" width="62.0301" height="62.0301" filterUnits="userSpaceOnUse" color-interpolation-filters="sRGB">
<feFlood flood-opacity="0" result="BackgroundImageFix"/>
<feBlend mode="normal" in="SourceGraphic" in2="BackgroundImageFix" result="shape"/>
<feGaussianBlur stdDeviation="9.23045" result="effect1_foregroundBlur_22_296"/>
</filter>
<filter id="filter1_f_22_296" x="-36.766" y="2.27287" width="62.0301" height="62.0301" filterUnits="userSpaceOnUse" color-interpolation-filters="sRGB">
<feFlood flood-opacity="0" result="BackgroundImageFix"/>
<feBlend mode="normal" in="SourceGraphic" in2="BackgroundImageFix" result="shape"/>
<feGaussianBlur stdDeviation="9.23045" result="effect1_foregroundBlur_22_296"/>
</filter>
<filter id="filter2_f_22_296" x="17.4622" y="-4.41476" width="62.0301" height="62.0301" filterUnits="userSpaceOnUse" color-interpolation-filters="sRGB">
<feFlood flood-opacity="0" result="BackgroundImageFix"/>
<feBlend mode="normal" in="SourceGraphic" in2="BackgroundImageFix" result="shape"/>
<feGaussianBlur stdDeviation="9.23045" result="effect1_foregroundBlur_22_296"/>
</filter>
<filter id="filter3_f_22_296" x="-0.436913" y="-25.1507" width="62.0301" height="62.0301" filterUnits="userSpaceOnUse" color-interpolation-filters="sRGB">
<feFlood flood-opacity="0" result="BackgroundImageFix"/>
<feBlend mode="normal" in="SourceGraphic" in2="BackgroundImageFix" result="shape"/>
<feGaussianBlur stdDeviation="9.23045" result="effect1_foregroundBlur_22_296"/>
</filter>
<filter id="filter4_f_22_296" x="-26.0839" y="-21.4542" width="62.0301" height="62.0301" filterUnits="userSpaceOnUse" color-interpolation-filters="sRGB">
<feFlood flood-opacity="0" result="BackgroundImageFix"/>
<feBlend mode="normal" in="SourceGraphic" in2="BackgroundImageFix" result="shape"/>
<feGaussianBlur stdDeviation="9.23045" result="effect1_foregroundBlur_22_296"/>
</filter>
<filter id="filter7_f_22_296" x="12.0689" y="15.8829" width="62.0301" height="62.0301" filterUnits="userSpaceOnUse" color-interpolation-filters="sRGB">
<feFlood flood-opacity="0" result="BackgroundImageFix"/>
<feBlend mode="normal" in="SourceGraphic" in2="BackgroundImageFix" result="shape"/>
<feGaussianBlur stdDeviation="9.23045" result="effect1_foregroundBlur_22_296"/>
</filter>
<filter id="filter8_f_22_296" x="17.4478" y="-23.7108" width="62.0301" height="62.0301" filterUnits="userSpaceOnUse" color-interpolation-filters="sRGB">
<feFlood flood-opacity="0" result="BackgroundImageFix"/>
<feBlend mode="normal" in="SourceGraphic" in2="BackgroundImageFix" result="shape"/>
<feGaussianBlur stdDeviation="9.23045" result="effect1_foregroundBlur_22_296"/>
</filter>
<filter id="filter9_f_22_296" x="28.1299" y="-47.438" width="62.0301" height="62.0301" filterUnits="userSpaceOnUse" color-interpolation-filters="sRGB">
<feFlood flood-opacity="0" result="BackgroundImageFix"/>
<feBlend mode="normal" in="SourceGraphic" in2="BackgroundImageFix" result="shape"/>
<feGaussianBlur stdDeviation="9.23045" result="effect1_foregroundBlur_22_296"/>
</filter>
<filter id="filter10_f_22_296" x="-46.7251" y="-35.0654" width="62.0301" height="62.0301" filterUnits="userSpaceOnUse" color-interpolation-filters="sRGB">
<feFlood flood-opacity="0" result="BackgroundImageFix"/>
<feBlend mode="normal" in="SourceGraphic" in2="BackgroundImageFix" result="shape"/>
<feGaussianBlur stdDeviation="9.23045" result="effect1_foregroundBlur_22_296"/>
</filter>
<filter id="filter11_f_22_296" x="-20.6285" y="-43.9672" width="62.0301" height="62.0301" filterUnits="userSpaceOnUse" color-interpolation-filters="sRGB">
<feFlood flood-opacity="0" result="BackgroundImageFix"/>
<feBlend mode="normal" in="SourceGraphic" in2="BackgroundImageFix" result="shape"/>
<feGaussianBlur stdDeviation="9.23045" result="effect1_foregroundBlur_22_296"/>
</filter>
<filter id="filter12_f_22_296" x="-45.5252" y="27.5171" width="62.0301" height="62.0301" filterUnits="userSpaceOnUse" color-interpolation-filters="sRGB">
<feFlood flood-opacity="0" result="BackgroundImageFix"/>
<feBlend mode="normal" in="SourceGraphic" in2="BackgroundImageFix" result="shape"/>
<feGaussianBlur stdDeviation="9.23045" result="effect1_foregroundBlur_22_296"/>
</filter>
<filter id="filter13_f_22_296" x="-19.4285" y="18.6152" width="62.0301" height="62.0301" filterUnits="userSpaceOnUse" color-interpolation-filters="sRGB">
<feFlood flood-opacity="0" result="BackgroundImageFix"/>
<feBlend mode="normal" in="SourceGraphic" in2="BackgroundImageFix" result="shape"/>
<feGaussianBlur stdDeviation="9.23045" result="effect1_foregroundBlur_22_296"/>
</filter>
<filter id="filter14_f_22_296" x="-37.3277" y="-2.12075" width="62.0301" height="62.0301" filterUnits="userSpaceOnUse" color-interpolation-filters="sRGB">
<feFlood flood-opacity="0" result="BackgroundImageFix"/>
<feBlend mode="normal" in="SourceGraphic" in2="BackgroundImageFix" result="shape"/>
<feGaussianBlur stdDeviation="9.23045" result="effect1_foregroundBlur_22_296"/>
</filter>
<filter id="filter15_b_22_296" x="-24.0363" y="-13.7905" width="92.766" height="72.1821" filterUnits="userSpaceOnUse" color-interpolation-filters="sRGB">
<feFlood flood-opacity="0" result="BackgroundImageFix"/>
<feGaussianBlur in="BackgroundImageFix" stdDeviation="0.184609"/>
<feComposite in2="SourceAlpha" operator="in" result="effect1_backgroundBlur_22_296"/>
<feBlend mode="normal" in="SourceGraphic" in2="effect1_backgroundBlur_22_296" result="shape"/>
</filter>
</defs>
</svg>
